<?xml version="1.0" standalone="no"?>
<!DOCTYPE svg PUBLIC "-//W3C//DTD SVG 20010904//EN"
 "http://www.w3.org/TR/2001/REC-SVG-20010904/DTD/svg10.dtd">
<svg version="1.0" xmlns="http://www.w3.org/2000/svg"
 width="334.000000pt" height="200.000000pt" viewBox="0 0 334.000000 200.000000"
 preserveAspectRatio="xMidYMid meet">

<g transform="translate(0.000000,200.000000) scale(0.100000,-0.100000)"
fill="#000000" stroke="none">
<path d="M1105 1308 c-3 -7 -4 -150 -3 -318 l3 -305 190 0 c187 0 191 0 246
28 81 39 84 45 52 103 -14 27 -28 51 -30 53 -1 2 -11 -3 -21 -12 -39 -36 -89
-47 -207 -47 l-115 0 0 190 0 190 118 0 c135 0 183 -16 225 -71 30 -41 34 -53
47 -148 18 -127 76 -207 190 -260 52 -24 67 -25 248 -29 l192 -4 0 322 0 322
-192 -4 c-174 -4 -198 -6 -245 -27 -28 -13 -59 -31 -67 -40 -15 -17 -14 -22
11 -67 14 -27 28 -51 30 -53 1 -2 11 3 21 12 39 36 89 47 207 47 l115 0 0
-191 0 -191 -134 4 c-133 3 -135 3 -173 34 -55 45 -75 85 -83 169 -13 128 -77
222 -189 273 -53 25 -66 27 -243 30 -152 3 -189 2 -193 -10z"/>
</g>
</svg>
